<svg xmlns="http://www.w3.org/2000/svg" viewBox="0 0 142 201">
  <path d="M71.0098 61.6001C69.6798 61.6001 68.3498 61.6501 67.0298 61.7001V86.8301C93.0598 86.8301 114.14 106.1 114.14 129.87C114.14 153.67 97.0898 173.74 67.0298 172.94C49.7298 172.49 19.6598 158.03 12.1598 124.28H0.629805C0.429805 126.44 0.299805 128.63 0.299805 130.86C0.299805 169.1 31.9598 200.08 71.0098 200.08C110.08 200.08 141.76 169.1 141.76 130.86C141.76 92.6201 110.08 61.6001 71.0098 61.6001Z" fill="#0066B3"/>
  <path d="M78.2998 122.44C48.0698 112.03 27.5298 91.6701 27.5298 68.2401C27.5298 39.1101 59.2398 14.7501 101.8 8.35007L103.44 0.370056C100.66 0.180056 97.8298 0.0600586 94.9998 0.0600586C42.5598 0.0600586 0.0698242 32.0601 0.0698242 71.5601C0.0698242 105.73 31.8798 134.28 74.3798 141.36L78.2998 122.44Z" fill="#D83D96"/>
</svg>
